<?xml version="1.0" standalone="no"?><!DOCTYPE svg PUBLIC "-//W3C//DTD SVG 1.1//EN" "http://www.w3.org/Graphics/SVG/1.1/DTD/svg11.dtd"><svg t="1604242827362" class="icon" viewBox="0 0 1024 1024" version="1.1" xmlns="http://www.w3.org/2000/svg" p-id="1210" xmlns:xlink="http://www.w3.org/1999/xlink" width="200" height="200"><defs><style type="text/css"></style></defs><path d="M852.42418797 108.78565034H595.28352582c-36.47809393 0-71.76018479 12.55803235-92.69023869 33.48808623L79.80619843 564.46282374c-26.91006929 26.91006929-26.91006929 62.79016169 0 89.70023097l278.07071605 278.07071606c13.15603388 13.15603388 29.900077 20.33205236 46.64412011 20.33205236s33.48808625-7.17601848 46.64412011-20.33205236l432.95311489-432.95311488c17.9400462-17.9400462 28.70407391-44.85011549 28.70407391-72.35818633v-257.14066216c0-41.86010778-19.13604927-60.99615707-60.39815553-60.99615706zM711.29582456 361.74030171c0 29.30207545-23.32206006 52.62413551-52.62413551 52.62413551s-52.62413551-23.32206006-52.62413551-52.62413551 23.32206006-52.62413551 52.62413551-52.6241355 52.62413551 23.32206006 52.62413551 52.6241355z" fill="#2C2C2C" p-id="1211"></path></svg>